<svg xmlns="http://www.w3.org/2000/svg" viewBox="0 0 200 200" shape-rendering="crispEdges">
  <!-- 背景 -->
  <rect width="200" height="200" fill="#1a1a1a"/>

  <!-- 星星装饰 -->
  <rect x="10" y="12" width="2" height="2" fill="#667eea" opacity="0.8"/>
  <rect x="30" y="6" width="2" height="2" fill="#764ba2" opacity="0.6"/>
  <rect x="170" y="10" width="2" height="2" fill="#667eea" opacity="0.7"/>
  <rect x="188" y="20" width="2" height="2" fill="#764ba2" opacity="0.5"/>
  <rect x="160" y="4" width="2" height="2" fill="#667eea" opacity="0.9"/>
  <rect x="50" y="18" width="2" height="2" fill="#aaa" opacity="0.4"/>
  <rect x="140" y="16" width="2" height="2" fill="#aaa" opacity="0.4"/>

  <!-- 机器人天线 -->
  <rect x="98" y="28" width="4" height="10" fill="#667eea"/>
  <rect x="94" y="24" width="12" height="4" fill="#667eea"/>
  <rect x="96" y="20" width="8" height="4" fill="#764ba2"/>

  <!-- 机器人头部 -->
  <rect x="72" y="38" width="56" height="44" fill="#2d2d2d"/>
  <rect x="70" y="40" width="60" height="40" fill="#2d2d2d"/>
  <!-- 头部边框 -->
  <rect x="70" y="38" width="60" height="2" fill="#667eea"/>
  <rect x="70" y="78" width="60" height="2" fill="#667eea"/>
  <rect x="70" y="38" width="2" height="42" fill="#667eea"/>
  <rect x="128" y="38" width="2" height="42" fill="#667eea"/>

  <!-- 眼睛左 -->
  <rect x="80" y="48" width="14" height="10" fill="#1a1a1a"/>
  <rect x="82" y="50" width="10" height="6" fill="#667eea"/>
  <rect x="84" y="52" width="4" height="2" fill="white" opacity="0.9"/>
  <!-- 眼睛右 -->
  <rect x="106" y="48" width="14" height="10" fill="#1a1a1a"/>
  <rect x="108" y="50" width="10" height="6" fill="#667eea"/>
  <rect x="110" y="52" width="4" height="2" fill="white" opacity="0.9"/>

  <!-- 嘴巴 -->
  <rect x="84" y="66" width="32" height="4" fill="#1a1a1a"/>
  <rect x="86" y="68" width="4" height="2" fill="#667eea"/>
  <rect x="92" y="68" width="4" height="2" fill="#667eea"/>
  <rect x="98" y="68" width="4" height="2" fill="#667eea"/>
  <rect x="104" y="68" width="4" height="2" fill="#667eea"/>
  <rect x="110" y="68" width="4" height="2" fill="#667eea"/>

  <!-- 机器人身体 -->
  <rect x="78" y="82" width="44" height="36" fill="#2d2d2d"/>
  <!-- 身体边框 -->
  <rect x="78" y="80" width="44" height="2" fill="#764ba2"/>
  <rect x="78" y="118" width="44" height="2" fill="#764ba2"/>
  <rect x="78" y="80" width="2" height="40" fill="#764ba2"/>
  <rect x="120" y="80" width="2" height="40" fill="#764ba2"/>

  <!-- 胸口装饰 - 电路板风格 -->
  <rect x="86" y="88" width="28" height="18" fill="#1a1a1a"/>
  <rect x="88" y="90" width="6" height="6" fill="#667eea" opacity="0.7"/>
  <rect x="96" y="90" width="6" height="6" fill="#764ba2" opacity="0.7"/>
  <rect x="104" y="90" width="6" height="6" fill="#667eea" opacity="0.7"/>
  <rect x="88" y="98" width="22" height="2" fill="#667eea" opacity="0.5"/>
  <rect x="88" y="102" width="14" height="2" fill="#764ba2" opacity="0.5"/>

  <!-- 手臂左 -->
  <rect x="62" y="82" width="16" height="8" fill="#2d2d2d"/>
  <rect x="62" y="80" width="16" height="2" fill="#764ba2"/>
  <rect x="56" y="90" width="22" height="6" fill="#2d2d2d"/>
  <rect x="56" y="96" width="22" height="2" fill="#764ba2"/>

  <!-- 手臂右 -->
  <rect x="122" y="82" width="16" height="8" fill="#2d2d2d"/>
  <rect x="122" y="80" width="16" height="2" fill="#764ba2"/>
  <rect x="122" y="90" width="22" height="6" fill="#2d2d2d"/>
  <rect x="122" y="96" width="22" height="2" fill="#764ba2"/>

  <!-- 腿左 -->
  <rect x="84" y="120" width="14" height="20" fill="#2d2d2d"/>
  <rect x="84" y="118" width="14" height="2" fill="#764ba2"/>
  <rect x="82" y="140" width="18" height="6" fill="#2d2d2d"/>
  <rect x="82" y="146" width="18" height="2" fill="#667eea"/>

  <!-- 腿右 -->
  <rect x="102" y="120" width="14" height="20" fill="#2d2d2d"/>
  <rect x="102" y="118" width="14" height="2" fill="#764ba2"/>
  <rect x="100" y="140" width="18" height="6" fill="#2d2d2d"/>
  <rect x="100" y="146" width="18" height="2" fill="#667eea"/>

  <!-- 笔记本 - 右侧悬浮 -->
  <!-- 本体 -->
  <rect x="134" y="72" width="46" height="56" fill="#3d3d3d"/>
  <rect x="134" y="70" width="46" height="2" fill="#667eea"/>
  <rect x="134" y="128" width="46" height="2" fill="#667eea"/>
  <rect x="134" y="70" width="2" height="60" fill="#667eea"/>
  <rect x="180" y="70" width="2" height="60" fill="#667eea"/>
  <!-- 书脊 -->
  <rect x="134" y="70" width="6" height="60" fill="#667eea" opacity="0.3"/>
  <rect x="136" y="74" width="2" height="4" fill="#667eea"/>
  <rect x="136" y="82" width="2" height="4" fill="#667eea"/>
  <rect x="136" y="90" width="2" height="4" fill="#667eea"/>
  <rect x="136" y="98" width="2" height="4" fill="#667eea"/>
  <rect x="136" y="106" width="2" height="4" fill="#667eea"/>
  <rect x="136" y="114" width="2" height="4" fill="#667eea"/>
  <rect x="136" y="122" width="2" height="4" fill="#667eea"/>
  <!-- 页面线条 -->
  <rect x="144" y="78" width="28" height="2" fill="#555"/>
  <rect x="144" y="84" width="28" height="2" fill="#555"/>
  <rect x="144" y="90" width="20" height="2" fill="#555"/>
  <rect x="144" y="96" width="28" height="2" fill="#555"/>
  <rect x="144" y="102" width="24" height="2" fill="#555"/>
  <rect x="144" y="108" width="28" height="2" fill="#555"/>
  <rect x="144" y="114" width="16" height="2" fill="#555"/>
  <!-- 笔记本上的AI文字像素 -->
  <rect x="148" y="118" width="2" height="6" fill="#667eea"/>
  <rect x="150" y="120" width="2" height="2" fill="#667eea"/>
  <rect x="152" y="118" width="2" height="6" fill="#667eea"/>
  <rect x="156" y="118" width="4" height="2" fill="#764ba2"/>
  <rect x="156" y="121" width="4" height="2" fill="#764ba2"/>
  <rect x="156" y="124" width="4" height="2" fill="#764ba2"/>

  <!-- 连接线：机器人手到笔记本 -->
  <rect x="78" y="93" width="56" height="2" fill="#667eea" opacity="0.4"/>

  <!-- 底部文字像素风 -->
  <!-- "AI" 像素字 -->
  <rect x="72" y="158" width="2" height="10" fill="#667eea"/>
  <rect x="74" y="160" width="2" height="2" fill="#667eea"/>
  <rect x="76" y="158" width="2" height="10" fill="#667eea"/>
  <rect x="80" y="158" width="6" height="2" fill="#764ba2"/>
  <rect x="80" y="163" width="6" height="2" fill="#764ba2"/>
  <rect x="80" y="168" width="6" height="2" fill="#764ba2"/>
  <rect x="80" y="158" width="2" height="12" fill="#764ba2"/>

  <!-- 底部光晕 -->
  <rect x="60" y="174" width="80" height="2" fill="#667eea" opacity="0.2"/>
  <rect x="70" y="176" width="60" height="2" fill="#667eea" opacity="0.1"/>

  <!-- 小像素装饰点 -->
  <rect x="20" y="150" width="4" height="4" fill="#667eea" opacity="0.3"/>
  <rect x="176" y="148" width="4" height="4" fill="#764ba2" opacity="0.3"/>
  <rect x="14" y="80" width="4" height="4" fill="#764ba2" opacity="0.2"/>
  <rect x="182" y="60" width="4" height="4" fill="#667eea" opacity="0.2"/>
</svg>
